<?xml version="1.0" standalone="no"?>
<!DOCTYPE svg PUBLIC "-//W3C//DTD SVG 20010904//EN"
 "http://www.w3.org/TR/2001/REC-SVG-20010904/DTD/svg10.dtd">
<svg version="1.0" xmlns="http://www.w3.org/2000/svg"
 width="680.000000pt" height="680.000000pt" viewBox="0 0 680.000000 680.000000"
 preserveAspectRatio="xMidYMid meet">
<metadata>
Created by potrace 1.11, written by Peter Selinger 2001-2013
</metadata>
<g transform="translate(0.000000,680.000000) scale(0.100000,-0.100000)"
fill="#000000" stroke="none">
<path d="M3297 5654 c-1 -1 -24 -4 -52 -7 -92 -10 -217 -42 -315 -79 -98 -37
-389 -195 -445 -240 -5 -5 -35 -26 -65 -48 -63 -45 -53 -37 -150 -114 -102
-81 -264 -219 -354 -301 -28 -25 -154 -138 -182 -162 -23 -20 -155 -136 -190
-168 -12 -11 -44 -38 -70 -60 -26 -22 -58 -50 -71 -62 -13 -11 -43 -36 -66
-55 -23 -18 -57 -47 -77 -64 -19 -17 -87 -72 -150 -122 -63 -51 -124 -100
-135 -111 -11 -10 -48 -39 -82 -65 -34 -25 -68 -52 -75 -59 -7 -6 -30 -25 -51
-41 -21 -15 -36 -30 -34 -32 6 -7 165 46 263 87 129 54 275 131 459 242 11 7
22 14 25 17 15 15 100 70 108 70 6 0 12 4 14 8 2 4 39 34 83 67 44 32 87 65
95 72 8 7 53 44 100 81 47 37 92 73 100 80 42 36 78 66 110 90 19 15 42 34 51
42 10 8 24 20 31 25 7 6 38 31 68 56 115 95 358 269 376 269 4 0 15 6 23 14
27 23 200 111 297 149 96 39 250 82 324 91 25 3 56 8 70 11 29 7 264 8 300 2
14 -2 48 -8 75 -11 143 -21 391 -112 525 -194 19 -12 46 -27 60 -34 14 -7 30
-17 35 -21 6 -5 53 -38 106 -75 53 -37 113 -80 134 -97 216 -172 215 -171 215
-162 0 3 -68 98 -87 122 -5 6 -20 26 -33 45 -13 19 -29 40 -35 46 -5 6 -23 27
-40 48 -46 58 -184 197 -240 241 -27 22 -57 46 -65 54 -39 37 -237 159 -337
208 -120 57 -259 109 -321 119 -20 3 -40 8 -43 10 -15 9 -272 26 -282 18z"/>
<path d="M3319 5146 c-2 -2 -47 -7 -99 -10 -52 -3 -106 -8 -120 -11 -14 -4
-38 -9 -55 -11 -16 -3 -63 -19 -104 -35 -258 -103 -467 -362 -536 -664 -33
-146 -21 -367 29 -540 54 -185 193 -361 372 -472 93 -58 267 -120 384 -138 25
-4 56 -9 70 -11 33 -5 229 -5 255 0 11 2 45 8 75 12 30 4 57 9 60 9 3 1 19 5
35 9 210 54 390 175 527 355 48 62 118 187 139 246 56 160 70 276 59 515 -6
126 -59 276 -135 379 -49 67 -186 190 -212 191 -6 0 -13 3 -15 8 -8 19 -225
105 -292 116 -21 4 -41 8 -45 10 -3 2 -31 7 -61 11 -30 4 -66 9 -80 11 -14 2
-72 6 -130 10 -58 3 -108 8 -111 10 -3 2 -8 2 -10 0z"/>
<path d="M5910 4510 c-131 -48 -480 -216 -480 -230 0 -4 -8 -10 -17 -14 -18
-5 -53 -26 -63 -36 -3 -3 -45 -32 -95 -65 -103 -69 -299 -220 -530 -409 -88
-72 -162 -133 -165 -136 -3 -3 -41 -32 -85 -65 -44 -33 -81 -63 -83 -67 -2 -5
-10 -8 -17 -8 -8 0 -18 -6 -22 -12 -11 -17 -49 -43 -176 -122 -397 -245 -773
-319 -1177 -230 -14 3 -36 7 -49 10 -13 3 -32 9 -41 14 -9 5 -28 11 -41 14
-72 14 -263 104 -363 171 -37 25 -71 45 -76 45 -5 0 -10 3 -12 8 -1 4 -40 34
-86 66 -45 33 -82 63 -82 68 0 4 -5 8 -11 8 -9 0 -91 61 -179 134 -54 43 -51
36 24 -69 50 -70 66 -90 141 -181 52 -63 191 -201 237 -236 20 -15 43 -34 51
-42 38 -38 224 -154 332 -207 115 -56 290 -120 365 -133 201 -36 399 -20 607
49 87 29 285 124 349 167 23 15 44 28 47 28 6 0 185 121 216 145 89 71 238
191 247 200 6 5 40 35 74 65 89 78 98 85 169 148 35 31 73 65 85 75 12 10 52
46 90 80 142 127 198 176 291 254 39 32 81 68 95 80 64 55 180 151 214 178 21
17 50 40 64 52 15 12 88 69 162 128 74 59 139 111 145 116 19 18 -23 7 -155
-41z"/>
<path d="M3208 2581 c-25 -20 -30 -36 -43 -146 -3 -22 -7 -53 -10 -70 -2 -16
-7 -61 -10 -100 -4 -38 -8 -86 -10 -105 -2 -19 -7 -82 -10 -140 -4 -58 -9
-123 -11 -145 -2 -22 -4 -137 -4 -255 -1 -228 3 -253 50 -313 33 -41 97 -70
157 -71 91 -2 85 -24 99 409 3 116 7 233 9 260 4 71 16 214 20 255 3 19 7 58
9 85 3 28 8 68 12 90 16 94 9 121 -44 179 -38 42 -91 71 -147 80 -33 6 -46 3
-67 -13z"/>
<path d="M748 2579 c-24 -9 -45 -46 -43 -74 0 -5 11 -37 24 -70 12 -33 26 -69
31 -80 4 -11 12 -31 18 -45 9 -20 32 -89 37 -110 1 -3 4 -12 8 -20 3 -8 35
-98 72 -198 112 -312 207 -498 307 -600 60 -62 84 -80 135 -104 24 -10 45 -19
48 -20 2 0 24 -4 48 -9 58 -11 134 10 201 54 70 47 286 230 611 519 16 14 39
35 51 45 68 59 159 140 173 154 9 8 59 51 111 95 52 43 106 89 120 102 41 37
113 80 148 87 43 9 66 44 57 87 -18 81 -67 133 -149 159 -99 32 -165 8 -311
-113 -74 -61 -272 -232 -339 -293 -6 -5 -47 -41 -91 -80 -44 -38 -89 -79 -101
-90 -12 -11 -32 -29 -46 -40 -14 -11 -56 -48 -94 -81 -38 -34 -85 -74 -104
-90 -19 -16 -39 -34 -45 -40 -27 -31 -238 -194 -250 -194 -7 0 -22 12 -33 28
-17 25 -82 156 -82 166 0 3 -5 17 -12 33 -6 15 -12 30 -13 33 -1 3 -7 18 -13
33 -7 16 -12 31 -12 35 0 4 -11 36 -25 72 -13 36 -41 110 -61 165 -57 160 -94
258 -110 292 -8 17 -14 36 -14 43 0 40 -98 137 -150 148 -46 9 -78 10 -102 1z"/>
<path d="M4905 2552 c-153 -15 -376 -100 -558 -213 -43 -27 -82 -49 -87 -49
-5 0 -10 -3 -12 -8 -1 -4 -40 -34 -86 -66 -102 -70 -110 -77 -179 -145 -106
-107 -190 -239 -211 -336 -40 -181 51 -346 239 -437 168 -81 344 -91 594 -34
36 8 119 37 162 57 24 10 45 19 47 19 15 0 436 206 559 274 38 21 75 35 82 32
7 -2 19 -18 26 -35 8 -17 17 -31 21 -31 5 0 8 -5 8 -11 0 -42 258 -309 375
-388 57 -38 85 -48 128 -46 105 6 106 121 2 204 -33 27 -181 176 -205 206 -26
33 -85 135 -126 219 -23 46 -62 103 -95 138 -43 46 -55 65 -53 87 2 25 -2 51
-22 150 -9 45 -47 146 -72 191 -58 105 -106 145 -217 184 -100 35 -216 49
-320 38z m277 -254 c40 -23 79 -61 118 -118 38 -56 110 -188 110 -202 0 -4
-17 -12 -38 -17 -20 -6 -62 -22 -92 -37 -30 -15 -60 -27 -65 -28 -6 -1 -26
-10 -45 -21 -19 -11 -88 -47 -152 -80 -65 -33 -141 -72 -170 -87 -29 -15 -59
-28 -65 -28 -7 0 -13 -3 -13 -8 0 -4 -15 -13 -32 -21 -18 -8 -60 -26 -93 -41
-103 -47 -187 -77 -265 -95 -151 -34 -294 -24 -311 22 -10 28 13 112 47 170
34 58 153 177 248 247 198 146 482 301 591 322 11 2 40 10 65 17 62 18 134 21
162 5z"/>
</g>
</svg>
